<svg height="7.53in" viewBox="0 0 1429.17 541.8" width="19.85in" xmlns="http://www.w3.org/2000/svg" xmlns:xlink="http://www.w3.org/1999/xlink"><linearGradient id="a" gradientTransform="matrix(-1 0 0 -1 1427.45 125.34)" gradientUnits="userSpaceOnUse" x1="713.73" x2="713.73" y1="126.43" y2="-2.13"><stop offset="0" stop-color="#74bdd7"/><stop offset="1" stop-color="#5baecb"/></linearGradient><linearGradient id="b" gradientTransform="matrix(.75 0 0 1 352.7 0)" gradientUnits="userSpaceOnUse" x1="478.94" x2="478.94" y1="542.41" y2="140.02"><stop offset="0" stop-color="#2f81a0"/><stop offset="1" stop-color="#429bbd"/></linearGradient><path d="m-.92.51h1429.3v124.31h-1429.3z" fill="url(#a)" transform="matrix(-1 0 0 -1 1427.45 125.34)"/><path d="m-.96 140.02h1429.36v402.39h-1429.36z" fill="url(#b)"/><path d="m-.99 291.39h1429.42v73.48h-1429.42z" fill="#8dc3d1"/><path d="m-.92 123.54s104 1.47 157.94-8 131.15-12.48 163.98-8.82 49.54-12.44 67.75-12.44 67.76 2.92 123.86 2.92 18.22-16.09 88.16-16.09 109.23-2.2 130.38 2.89 35 6.59 58.29 6.59 43.71-30.73 114.39-30.73 83.06-7.32 102.73-7.32 35 9.52 93.26 9.52 51.73-16.83 121.67-16.83 100.51-11.68 140.62-11.68 66.3-10.24 66.3-10.24v121.45h-1429.33z" fill="#2e80a0"/><path d="m919.51 194.15-21.95-6.95v-14.54l21.95 8.5z" fill="#c94200"/><path d="m960.21 259.26-64.77 18.63v-48.08l36.23-31.94 28.6 18.66z" fill="#eb7c23"/><path d="m895.44 277.89-58.01-23.15-.14-48.7 58.15 23.77z" fill="#c94200"/><path d="m895.44 229.81-58.15-23.77 36.21-31.35 58.17 23.18z" fill="#f4b715"/><path d="m369.31 191.95-21.95-6.95v-14.54l21.95 8.51z" fill="#72b3c6"/><path d="m410.01 257.07-64.76 18.62v-48.07l36.23-31.94 28.6 18.66z" fill="#72b3c6"/><path d="m345.25 275.69-58.02-23.15-.14-48.7 58.16 23.78z" fill="#8ec2d0"/><path d="m345.25 227.62-58.16-23.78 36.22-31.34 58.17 23.18z" fill="#cee6ea"/><path d="m644.41 362.43-21.95-6.96v-14.54l21.95 8.51z" fill="#72b3c6"/><path d="m685.11 427.54-64.76 18.62v-48.07l36.22-31.94 28.61 18.66z" fill="#72b3c6"/><path d="m620.35 446.16-58.02-23.15-.14-48.7 58.16 23.78z" fill="#8ec2d0"/><path d="m620.35 398.09-58.16-23.78 36.22-31.34 58.16 23.18z" fill="#cee6ea"/><path d="m1362.24 218.29-17.56 16.46 9.7-2.56-9.7 10.61 9.88-3.11-10.24 10.98 10.06-2.93-9.7 10.24 14.45-4.2v13.53l5.86-1.83v-13.53l8.05-1.47-6.41-7.31h6.59l-7.14-6.95h7.87l-6.95-7.14h7.5z" fill="#02587b"/><path d="m1001.36 200.73-17.56 16.46 9.7-2.56-9.7 10.61 9.88-3.11-10.25 10.98 10.07-2.93-9.7 10.24 14.45-4.2v13.53l5.85-1.83v-13.53l8.05-1.47-6.4-7.31h6.59l-7.14-6.95h7.87l-6.95-7.14h7.5z" fill="#02587b"/><path d="m95.77 201.1-17.56 16.46 9.69-2.56-9.69 10.61 9.88-3.11-10.25 10.97 10.06-2.92-9.69 10.24 14.45-4.21v13.54l5.85-1.83v-13.54l8.05-1.46-6.4-7.32h6.58l-7.13-6.95h7.86l-6.95-7.13h7.5z" fill="#02587b"/><path d="m447.32 353.1-17.56 16.46 9.7-2.56-9.7 10.61 9.88-3.11-10.24 10.97 10.06-2.92-9.7 10.24 14.45-4.21v13.54l5.86-1.83v-13.54l8.04-1.46-6.4-7.32h6.59l-7.14-6.95h7.87l-6.95-7.13h7.5z" fill="#02587b"/><path d="m486.28 341.02-17.56 16.47 9.7-2.56-9.7 10.6 9.88-3.1-10.24 10.97 10.06-2.93-9.7 10.25 14.45-4.21v13.53l5.86-1.83v-13.53l8.04-1.46-6.4-7.32h6.59l-7.14-6.95h7.87l-6.95-7.13h7.5z" fill="#02587b"/><path d="m1210.79 351.45-17.56 16.46 9.7-2.56-9.7 10.61 9.88-3.11-10.24 10.97 10.06-2.92-9.7 10.24 14.45-4.2v13.53l5.86-1.83v-13.53l8.05-1.47-6.41-7.31h6.59l-7.14-6.95h7.87l-6.95-7.14h7.5z" fill="#02587b"/><path d="m848.65 150.59a17.73 17.73 0 0 0 -12.84-17 15.24 15.24 0 0 0 -26.59-7.51 28.4 28.4 0 0 0 -53.37 7.83 15.1 15.1 0 0 0 -4.78-.77 15.27 15.27 0 0 0 -14.72 11.26 12.28 12.28 0 0 0 -5-1.06 12.5 12.5 0 1 0 0 25h.54 98.5.54.54.33a17.7 17.7 0 0 0 16.85-17.75z" fill="#fff" opacity=".75"/><path d="m1345.14 117.3a17.74 17.74 0 0 1 12.83-17 15.24 15.24 0 0 1 26.59-7.51 28.4 28.4 0 0 1 53.37 7.83 15.44 15.44 0 0 1 4.78-.77 15.25 15.25 0 0 1 14.72 11.26 12.32 12.32 0 0 1 5-1.06 12.5 12.5 0 0 1 0 25h-.54-98.5-.54-.55-.3a17.7 17.7 0 0 1 -16.86-17.75z" fill="#fff" opacity=".75"/><path d="m207 117.66a17.71 17.71 0 0 0 -12.84-17 15.24 15.24 0 0 0 -26.59-7.51 28.4 28.4 0 0 0 -53.37 7.85 15.21 15.21 0 0 0 -19.5 10.48 12.49 12.49 0 1 0 -5 23.94h.54 98.51.54.54.33a17.71 17.71 0 0 0 16.84-17.76z" fill="#fff" opacity=".75"/><g fill="#a7d6e2"><path d="m729.74 330.6h-37.13l10.61-3.66h38.36z"/><path d="m655.78 330.6h-37.13l10.61-3.66h38.36z"/><path d="m581.82 330.6h-37.13l10.61-3.66h38.37z"/><path d="m507.87 330.6h-37.13l10.6-3.66h38.37z"/><path d="m433.91 330.6h-37.13l10.61-3.66h38.36z"/><path d="m1099.52 330.6h-37.13l10.61-3.66h38.37z"/><path d="m1025.57 330.6h-37.14l10.61-3.66h38.37z"/><path d="m951.61 330.6h-37.13l10.61-3.66h38.36z"/><path d="m877.65 330.6h-37.13l10.61-3.66h38.37z"/><path d="m803.69 330.6h-37.13l10.61-3.66h38.37z"/><path d="m1173.48 330.6h-37.13l10.61-3.66h38.36z"/><path d="m1395.35 330.6h-37.13l10.61-3.66h38.36z"/><path d="m1321.39 330.6h-37.13l10.61-3.66h38.37z"/><path d="m1247.44 330.6h-37.13l10.6-3.66h38.37z"/><path d="m359.95 330.6h-37.13l10.61-3.66h38.37z"/><path d="m286 330.6h-37.14l10.61-3.66h38.37z"/><path d="m212.04 330.6h-37.13l10.61-3.66h38.36z"/><path d="m138.08 330.6h-37.13l10.61-3.66h38.37z"/><path d="m64.12 330.6h-37.13l10.61-3.66h38.37z"/></g><path d="m243.09 336.36-57.13 14.27v-25.43l57.13-13.82z" fill="#007a5a"/><path d="m186.01 388.86-5.53 1.37v-63.77l5.53-1.26z" fill="#02587b"/><path d="m1295.92 336.36-57.13 14.27v-25.43l57.13-13.82z" fill="#007a5a"/><path d="m1238.84 388.86-5.52 1.37v-63.77l5.52-1.26z" fill="#02587b"/></svg>